<?xml version="1.0" standalone="no"?>
<!DOCTYPE svg PUBLIC "-//W3C//DTD SVG 20010904//EN"
 "http://www.w3.org/TR/2001/REC-SVG-20010904/DTD/svg10.dtd">
<svg version="1.0" xmlns="http://www.w3.org/2000/svg"
 width="1500.000000pt" height="1500.000000pt" viewBox="0 0 1500.000000 1500.000000"
 preserveAspectRatio="xMidYMid meet">
<metadata>
Created by potrace 1.11, written by Peter Selinger 2001-2013
</metadata>
<g transform="translate(0.000000,1500.000000) scale(0.100000,-0.100000)"
fill="#000000" stroke="none">
<path d="M0 7500 l0 -7500 7500 0 7500 0 0 7500 0 7500 -7500 0 -7500 0 0
-7500z m12400 340 l0 -1160 -225 0 -225 0 0 1153 c0 635 3 1157 7 1160 3 4
105 7 225 7 l218 0 0 -1160z m710 0 l0 -1160 -225 0 -225 0 0 1160 0 1160 225
0 225 0 0 -1160z m-6032 778 l2 -237 138 -3 137 -3 3 -157 3 -158 -141 0 -140
0 1 -492 c1 -271 4 -504 8 -518 10 -38 49 -51 163 -54 l103 -2 3 -166 2 -165
-142 -6 c-281 -13 -447 27 -522 125 -61 80 -60 69 -64 701 l-3 577 -115 0
-114 0 0 160 0 160 115 0 115 0 0 233 c0 129 3 237 7 241 4 3 104 5 222 4
l216 -3 3 -237z m-4031 -222 c138 -45 300 -171 366 -287 12 -21 24 -39 27 -39
3 0 20 29 38 65 65 125 194 219 369 267 68 19 104 22 283 22 190 0 212 -2 301
-26 189 -51 309 -130 365 -239 51 -102 54 -132 55 -704 0 -291 4 -550 8 -575
5 -25 9 305 10 733 l1 777 215 0 214 0 3 -142 3 -142 45 69 c115 177 249 255
437 255 l73 0 0 -229 0 -229 -78 5 c-90 6 -195 -9 -264 -39 -71 -30 -142 -113
-170 -196 -22 -65 -22 -81 -26 -564 l-3 -498 -430 0 -429 0 -10 25 c-5 13 -15
55 -21 92 -6 38 -13 70 -15 72 -2 2 -32 -23 -68 -55 -156 -144 -337 -204 -543
-184 -175 18 -313 98 -393 229 l-30 48 -83 -81 c-130 -129 -254 -183 -442
-193 -222 -11 -368 56 -498 227 l-26 35 -1 -447 0 -448 -220 0 -220 0 0 1195
0 1195 215 0 215 0 0 -122 1 -123 22 30 c80 109 184 189 290 224 89 29 100 30
222 26 85 -2 129 -9 192 -29z m6225 15 c203 -52 334 -173 382 -353 14 -51 15
-46 15 140 l1 192 230 0 230 0 0 -553 c0 -357 4 -574 11 -612 18 -99 53 -151
129 -191 28 -15 57 -19 140 -19 95 0 111 3 162 28 91 45 144 119 173 239 12
51 15 159 15 586 l0 522 230 0 230 0 0 -855 0 -855 -220 0 -220 0 0 116 0 116
-40 -51 c-124 -157 -303 -230 -530 -218 -281 16 -444 143 -509 397 l-19 75 -1
-217 -1 -218 -230 0 -229 0 -3 593 c-2 460 -6 599 -16 622 -26 60 -64 103
-115 131 -48 26 -61 29 -152 29 -87 0 -107 -3 -155 -26 -66 -31 -113 -77 -147
-143 -49 -97 -53 -141 -53 -693 l0 -513 -225 0 -225 0 0 855 0 855 215 0 215
0 0 -122 1 -123 27 35 c103 134 203 206 325 236 83 20 271 17 359 -5z"/>
<path d="M3989 8056 c-80 -28 -120 -75 -149 -173 l-13 -43 -155 0 -154 0 6
-22 c3 -13 8 -59 11 -103 3 -44 8 -94 11 -111 l4 -30 68 33 c90 44 222 77 422
102 213 28 288 50 329 96 27 31 31 43 31 91 0 92 -29 128 -130 158 -65 19
-229 21 -281 2z"/>
<path d="M2599 8027 c-187 -53 -278 -223 -278 -522 -1 -240 66 -386 211 -462
49 -26 62 -28 168 -28 109 0 118 2 169 30 136 75 211 246 211 484 0 163 -45
311 -122 405 -46 56 -140 97 -234 102 -47 2 -97 -1 -125 -9z"/>
<path d="M4349 7485 c-25 -13 -113 -38 -195 -55 -177 -36 -227 -52 -277 -85
-90 -62 -115 -232 -46 -319 51 -65 173 -92 287 -62 127 32 203 90 248 188 25
56 28 77 32 188 2 69 3 135 1 147 l-4 21 -46 -23z"/>
</g>
</svg>
